<svg xmlns="http://www.w3.org/2000/svg" viewBox="0 0 900 550" width="900" height="550" font-family="'Noto Sans CJK TC','PingFang TC','Microsoft JhengHei',sans-serif">
  <rect width="900" height="550" fill="#ffffff"/>
  <text x="450" y="30" text-anchor="middle" font-size="17" font-weight="bold" fill="#2c3e50">FR 1-7 全景矩陣：七個基礎安全需求 × 根本問題 × SL 要求差異</text>

  <!-- 表頭 -->
  <rect x="20" y="50" width="40" height="28" rx="3" fill="#2c3e50"/><text x="40" y="69" text-anchor="middle" font-size="11" font-weight="bold" fill="#fff">FR</text>
  <rect x="62" y="50" width="120" height="28" rx="3" fill="#2c3e50"/><text x="122" y="69" text-anchor="middle" font-size="11" font-weight="bold" fill="#fff">根本問題</text>
  <rect x="184" y="50" width="90" height="28" rx="3" fill="#2c3e50"/><text x="229" y="69" text-anchor="middle" font-size="11" font-weight="bold" fill="#fff">核心控制</text>
  <rect x="276" y="50" width="120" height="28" rx="3" fill="#2c3e50"/><text x="336" y="69" text-anchor="middle" font-size="10" font-weight="bold" fill="#fff">SL 1-2 (基本)</text>
  <rect x="398" y="50" width="120" height="28" rx="3" fill="#2c3e50"/><text x="458" y="69" text-anchor="middle" font-size="10" font-weight="bold" fill="#fff">SL 2-3 (中/強)</text>
  <rect x="520" y="50" width="120" height="28" rx="3" fill="#2c3e50"/><text x="580" y="69" text-anchor="middle" font-size="10" font-weight="bold" fill="#fff">SL 3-4 (強/極)</text>
  <rect x="642" y="50" width="230" height="28" rx="3" fill="#2c3e50"/><text x="757" y="69" text-anchor="middle" font-size="10" font-weight="bold" fill="#fff">常見漏洞</text>

  <!-- FR1 -->
  <rect x="20" y="82" width="40" height="66" rx="2" fill="#e8f8f5" stroke="#27ae60" stroke-width="1"/><text x="40" y="110" text-anchor="middle" font-size="12" font-weight="bold" fill="#27ae60">FR1</text><text x="40" y="128" text-anchor="middle" font-size="8" fill="#555">IAC</text>
  <rect x="62" y="82" width="120" height="66" rx="2" fill="#fafafa" stroke="#e0e0e0" stroke-width="1"/><text x="122" y="105" text-anchor="middle" font-size="11" font-weight="bold" fill="#2c3e50">你是誰？</text><text x="122" y="123" text-anchor="middle" font-size="9" fill="#777">識別與鑑別控制</text><text x="122" y="139" text-anchor="middle" font-size="9" fill="#999">人、程式、裝置</text>
  <rect x="184" y="82" width="90" height="66" rx="2" fill="#fafafa" stroke="#e0e0e0" stroke-width="1"/><text x="229" y="105" text-anchor="middle" font-size="9" fill="#555">帳密/憑證</text><text x="229" y="121" text-anchor="middle" font-size="9" fill="#555">MFA/HSM</text><text x="229" y="137" text-anchor="middle" font-size="9" fill="#555">裝置鑑別</text>
  <rect x="276" y="82" width="120" height="66" rx="2" fill="#e8f8f5" stroke="#27ae60" stroke-width="0.8"/><text x="336" y="105" text-anchor="middle" font-size="9" fill="#555">唯一識別</text><text x="336" y="121" text-anchor="middle" font-size="9" fill="#555">帳號密碼強度</text>
  <rect x="398" y="82" width="120" height="66" rx="2" fill="#fdf2e9" stroke="#e67e22" stroke-width="0.8"/><text x="458" y="105" text-anchor="middle" font-size="9" fill="#555">多因素認證</text><text x="458" y="121" text-anchor="middle" font-size="9" fill="#555">裝置憑證</text>
  <rect x="520" y="82" width="120" height="66" rx="2" fill="#f9ebea" stroke="#c0392b" stroke-width="0.8"/><text x="580" y="105" text-anchor="middle" font-size="9" fill="#555">硬體安全模組</text><text x="580" y="121" text-anchor="middle" font-size="9" fill="#555">生物辨識</text>
  <rect x="642" y="82" width="230" height="66" rx="2" fill="#fff5f5" stroke="#e0e0e0" stroke-width="1"/><text x="757" y="105" text-anchor="middle" font-size="9" fill="#c0392b">預設密碼不改 / API 無認證</text><text x="757" y="121" text-anchor="middle" font-size="9" fill="#c0392b">JWT secret 寫死在 code</text>

  <!-- FR2 -->
  <rect x="20" y="152" width="40" height="66" rx="2" fill="#e8f8f5" stroke="#27ae60" stroke-width="1"/><text x="40" y="180" text-anchor="middle" font-size="12" font-weight="bold" fill="#27ae60">FR2</text><text x="40" y="198" text-anchor="middle" font-size="8" fill="#555">UC</text>
  <rect x="62" y="152" width="120" height="66" rx="2" fill="#fafafa" stroke="#e0e0e0" stroke-width="1"/><text x="122" y="175" text-anchor="middle" font-size="11" font-weight="bold" fill="#2c3e50">你能做什麼？</text><text x="122" y="193" text-anchor="middle" font-size="9" fill="#777">使用控制</text><text x="122" y="209" text-anchor="middle" font-size="9" fill="#999">授權、最小權限</text>
  <rect x="184" y="152" width="90" height="66" rx="2" fill="#fafafa" stroke="#e0e0e0" stroke-width="1"/><text x="229" y="175" text-anchor="middle" font-size="9" fill="#555">RBAC</text><text x="229" y="191" text-anchor="middle" font-size="9" fill="#555">最小權限</text><text x="229" y="207" text-anchor="middle" font-size="9" fill="#555">職責分離</text>
  <rect x="276" y="152" width="120" height="66" rx="2" fill="#e8f8f5" stroke="#27ae60" stroke-width="0.8"/><text x="336" y="175" text-anchor="middle" font-size="9" fill="#555">基本授權</text><text x="336" y="191" text-anchor="middle" font-size="9" fill="#555">admin vs user</text>
  <rect x="398" y="152" width="120" height="66" rx="2" fill="#fdf2e9" stroke="#e67e22" stroke-width="0.8"/><text x="458" y="175" text-anchor="middle" font-size="9" fill="#555">RBAC + SoD</text><text x="458" y="191" text-anchor="middle" font-size="9" fill="#555">session lock</text>
  <rect x="520" y="152" width="120" height="66" rx="2" fill="#f9ebea" stroke="#c0392b" stroke-width="0.8"/><text x="580" y="175" text-anchor="middle" font-size="9" fill="#555">動態授權</text><text x="580" y="191" text-anchor="middle" font-size="9" fill="#555">雙人授權</text>
  <rect x="642" y="152" width="230" height="66" rx="2" fill="#fff5f5" stroke="#e0e0e0" stroke-width="1"/><text x="757" y="175" text-anchor="middle" font-size="9" fill="#c0392b">DevMode 全繞過授權</text><text x="757" y="191" text-anchor="middle" font-size="9" fill="#c0392b">無職責分離 / admin 權限過大</text>

  <!-- FR3 -->
  <rect x="20" y="222" width="40" height="66" rx="2" fill="#e8f8f5" stroke="#27ae60" stroke-width="1"/><text x="40" y="250" text-anchor="middle" font-size="12" font-weight="bold" fill="#27ae60">FR3</text><text x="40" y="268" text-anchor="middle" font-size="8" fill="#555">SI</text>
  <rect x="62" y="222" width="120" height="66" rx="2" fill="#fafafa" stroke="#e0e0e0" stroke-width="1"/><text x="122" y="245" text-anchor="middle" font-size="11" font-weight="bold" fill="#2c3e50">有被篡改嗎？</text><text x="122" y="263" text-anchor="middle" font-size="9" fill="#777">系統完整性</text><text x="122" y="279" text-anchor="middle" font-size="9" fill="#999">Boot + FW + 資料</text>
  <rect x="184" y="222" width="90" height="66" rx="2" fill="#fafafa" stroke="#e0e0e0" stroke-width="1"/><text x="229" y="245" text-anchor="middle" font-size="9" fill="#555">Secure Boot</text><text x="229" y="261" text-anchor="middle" font-size="9" fill="#555">簽章驗證</text><text x="229" y="277" text-anchor="middle" font-size="9" fill="#555">輸入驗證</text>
  <rect x="276" y="222" width="120" height="66" rx="2" fill="#e8f8f5" stroke="#27ae60" stroke-width="0.8"/><text x="336" y="245" text-anchor="middle" font-size="9" fill="#555">CRC/checksum</text><text x="336" y="261" text-anchor="middle" font-size="9" fill="#555">（只防隨機錯誤）</text>
  <rect x="398" y="222" width="120" height="66" rx="2" fill="#fdf2e9" stroke="#e67e22" stroke-width="0.8"/><text x="458" y="245" text-anchor="middle" font-size="9" fill="#555">簽章驗證</text><text x="458" y="261" text-anchor="middle" font-size="9" fill="#555">firmware 更新驗證</text>
  <rect x="520" y="222" width="120" height="66" rx="2" fill="#f9ebea" stroke="#c0392b" stroke-width="0.8"/><text x="580" y="245" text-anchor="middle" font-size="9" fill="#555">Secure Boot 鏈</text><text x="580" y="261" text-anchor="middle" font-size="9" fill="#555">tamper detection</text>
  <rect x="642" y="222" width="230" height="66" rx="2" fill="#fff5f5" stroke="#e0e0e0" stroke-width="1"/><text x="757" y="245" text-anchor="middle" font-size="9" fill="#c0392b">更新無簽章驗證</text><text x="757" y="261" text-anchor="middle" font-size="9" fill="#c0392b">相依弱點不掃描 (已知 CVE 放著)</text>

  <!-- FR4 -->
  <rect x="20" y="292" width="40" height="66" rx="2" fill="#e8f8f5" stroke="#27ae60" stroke-width="1"/><text x="40" y="320" text-anchor="middle" font-size="12" font-weight="bold" fill="#27ae60">FR4</text><text x="40" y="338" text-anchor="middle" font-size="8" fill="#555">DC</text>
  <rect x="62" y="292" width="120" height="66" rx="2" fill="#fafafa" stroke="#e0e0e0" stroke-width="1"/><text x="122" y="315" text-anchor="middle" font-size="11" font-weight="bold" fill="#2c3e50">有被偷看嗎？</text><text x="122" y="333" text-anchor="middle" font-size="9" fill="#777">資料機密性</text><text x="122" y="349" text-anchor="middle" font-size="9" fill="#999">傳輸中 + 靜態</text>
  <rect x="184" y="292" width="90" height="66" rx="2" fill="#fafafa" stroke="#e0e0e0" stroke-width="1"/><text x="229" y="315" text-anchor="middle" font-size="9" fill="#555">TLS/IPsec</text><text x="229" y="331" text-anchor="middle" font-size="9" fill="#555">金鑰管理</text><text x="229" y="347" text-anchor="middle" font-size="9" fill="#555">安全抹除</text>
  <rect x="276" y="292" width="120" height="66" rx="2" fill="#e8f8f5" stroke="#27ae60" stroke-width="0.8"/><text x="336" y="315" text-anchor="middle" font-size="9" fill="#555">無特別機密要求</text>
  <rect x="398" y="292" width="120" height="66" rx="2" fill="#fdf2e9" stroke="#e67e22" stroke-width="0.8"/><text x="458" y="315" text-anchor="middle" font-size="9" fill="#555">傳輸中加密</text><text x="458" y="331" text-anchor="middle" font-size="9" fill="#555">(TLS 1.3)</text>
  <rect x="520" y="292" width="120" height="66" rx="2" fill="#f9ebea" stroke="#c0392b" stroke-width="0.8"/><text x="580" y="315" text-anchor="middle" font-size="9" fill="#555">全鏈路加密</text><text x="580" y="331" text-anchor="middle" font-size="9" fill="#555">安全金鑰儲存</text>
  <rect x="642" y="292" width="230" height="66" rx="2" fill="#fff5f5" stroke="#e0e0e0" stroke-width="1"/><text x="757" y="315" text-anchor="middle" font-size="9" fill="#c0392b">全鏈路明文 HTTP</text><text x="757" y="331" text-anchor="middle" font-size="9" fill="#c0392b">私有金鑰存程式碼 / 未加密</text>

  <!-- FR5 -->
  <rect x="20" y="362" width="40" height="66" rx="2" fill="#e8f8f5" stroke="#27ae60" stroke-width="1"/><text x="40" y="390" text-anchor="middle" font-size="12" font-weight="bold" fill="#27ae60">FR5</text><text x="40" y="408" text-anchor="middle" font-size="8" fill="#555">RDF</text>
  <rect x="62" y="362" width="120" height="66" rx="2" fill="#fafafa" stroke="#e0e0e0" stroke-width="1"/><text x="122" y="385" text-anchor="middle" font-size="11" font-weight="bold" fill="#2c3e50">誰能跟誰通？</text><text x="122" y="403" text-anchor="middle" font-size="9" fill="#777">限制資料流</text><text x="122" y="419" text-anchor="middle" font-size="9" fill="#999">分區、Conduit、防火牆</text>
  <rect x="184" y="362" width="90" height="66" rx="2" fill="#fafafa" stroke="#e0e0e0" stroke-width="1"/><text x="229" y="385" text-anchor="middle" font-size="9" fill="#555">網路分段</text><text x="229" y="401" text-anchor="middle" font-size="9" fill="#555">default deny</text><text x="229" y="417" text-anchor="middle" font-size="9" fill="#555">邊界防護</text>
  <rect x="276" y="362" width="120" height="66" rx="2" fill="#e8f8f5" stroke="#27ae60" stroke-width="0.8"/><text x="336" y="385" text-anchor="middle" font-size="9" fill="#555">基本網路設定</text><text x="336" y="401" text-anchor="middle" font-size="9" fill="#555">port 最小化</text>
  <rect x="398" y="362" width="120" height="66" rx="2" fill="#fdf2e9" stroke="#e67e22" stroke-width="0.8"/><text x="458" y="385" text-anchor="middle" font-size="9" fill="#555">default deny</text><text x="458" y="401" text-anchor="middle" font-size="9" fill="#555">ACL / 分區</text>
  <rect x="520" y="362" width="120" height="66" rx="2" fill="#f9ebea" stroke="#c0392b" stroke-width="0.8"/><text x="580" y="385" text-anchor="middle" font-size="9" fill="#555">工業 DPI</text><text x="580" y="401" text-anchor="middle" font-size="9" fill="#555">Data diode</text>
  <rect x="642" y="362" width="230" height="66" rx="2" fill="#fff5f5" stroke="#e0e0e0" stroke-width="1"/><text x="757" y="385" text-anchor="middle" font-size="9" fill="#c0392b">服務綁 0.0.0.0 (全介面開放)</text><text x="757" y="401" text-anchor="middle" font-size="9" fill="#c0392b">pprof 全網曝露 / CORS * </text>

  <!-- FR6 -->
  <rect x="20" y="432" width="40" height="66" rx="2" fill="#e8f8f5" stroke="#27ae60" stroke-width="1"/><text x="40" y="460" text-anchor="middle" font-size="12" font-weight="bold" fill="#27ae60">FR6</text><text x="40" y="478" text-anchor="middle" font-size="8" fill="#555">TRE</text>
  <rect x="62" y="432" width="120" height="66" rx="2" fill="#fafafa" stroke="#e0e0e0" stroke-width="1"/><text x="122" y="455" text-anchor="middle" font-size="11" font-weight="bold" fill="#2c3e50">出事了知道嗎？</text><text x="122" y="473" text-anchor="middle" font-size="9" fill="#777">事件及時回應</text><text x="122" y="489" text-anchor="middle" font-size="9" fill="#999">記錄、告警、稽核</text>
  <rect x="184" y="432" width="90" height="66" rx="2" fill="#fafafa" stroke="#e0e0e0" stroke-width="1"/><text x="229" y="455" text-anchor="middle" font-size="9" fill="#555">安全日誌</text><text x="229" y="471" text-anchor="middle" font-size="9" fill="#555">即時告警</text><text x="229" y="487" text-anchor="middle" font-size="9" fill="#555">稽核軌跡</text>
  <rect x="276" y="432" width="120" height="66" rx="2" fill="#e8f8f5" stroke="#27ae60" stroke-width="0.8"/><text x="336" y="455" text-anchor="middle" font-size="9" fill="#555">基本事件記錄</text>
  <rect x="398" y="432" width="120" height="66" rx="2" fill="#fdf2e9" stroke="#e67e22" stroke-width="0.8"/><text x="458" y="455" text-anchor="middle" font-size="9" fill="#555">記錄+匯出+告警</text><text x="458" y="471" text-anchor="middle" font-size="9" fill="#555">防篡改日誌</text>
  <rect x="520" y="432" width="120" height="66" rx="2" fill="#f9ebea" stroke="#c0392b" stroke-width="0.8"/><text x="580" y="455" text-anchor="middle" font-size="9" fill="#555">自動化事件響應</text><text x="580" y="471" text-anchor="middle" font-size="9" fill="#555">forensic readiness</text>
  <rect x="642" y="432" width="230" height="66" rx="2" fill="#fff5f5" stroke="#e0e0e0" stroke-width="1"/><text x="757" y="455" text-anchor="middle" font-size="9" fill="#c0392b">安全事件沒記錄 / 沒監看</text><text x="757" y="471" text-anchor="middle" font-size="9" fill="#c0392b">被入侵三週後才從第三方通知</text>

  <!-- FR7 -->
  <rect x="20" y="502" width="40" height="40" rx="2" fill="#e8f8f5" stroke="#27ae60" stroke-width="1"/><text x="40" y="526" text-anchor="middle" font-size="12" font-weight="bold" fill="#27ae60">FR7</text><text x="40" y="538" text-anchor="middle" font-size="8" fill="#555">RA</text>
  <rect x="62" y="502" width="120" height="40" rx="2" fill="#fafafa" stroke="#e0e0e0" stroke-width="1"/><text x="122" y="519" text-anchor="middle" font-size="11" font-weight="bold" fill="#2c3e50">還能運作嗎？</text><text x="122" y="535" text-anchor="middle" font-size="9" fill="#777">資源可用性</text>
  <rect x="184" y="502" width="90" height="40" rx="2" fill="#fafafa" stroke="#e0e0e0" stroke-width="1"/><text x="229" y="519" text-anchor="middle" font-size="9" fill="#555">抗 DoS</text><text x="229" y="535" text-anchor="middle" font-size="9" fill="#555">fail-safe</text>
  <rect x="276" y="502" width="120" height="40" rx="2" fill="#e8f8f5" stroke="#27ae60" stroke-width="0.8"/><text x="336" y="519" text-anchor="middle" font-size="9" fill="#555">基本失效保護</text>
  <rect x="398" y="502" width="120" height="40" rx="2" fill="#fdf2e9" stroke="#e67e22" stroke-width="0.8"/><text x="458" y="519" text-anchor="middle" font-size="9" fill="#555">抗 moderate DoS</text>
  <rect x="520" y="502" width="120" height="40" rx="2" fill="#f9ebea" stroke="#c0392b" stroke-width="0.8"/><text x="580" y="519" text-anchor="middle" font-size="9" fill="#555">完整容錯 / hot standby</text>
  <rect x="642" y="502" width="230" height="40" rx="2" fill="#fff5f5" stroke="#e0e0e0" stroke-width="1"/><text x="757" y="519" text-anchor="middle" font-size="9" fill="#c0392b">pprof 可遠端 DoS / 斷電不回 safe state</text>
</svg>
